<svg xmlns="http://www.w3.org/2000/svg" width="70" height="70" viewBox="0 0 70 70">
  <defs>
    <style>
      .cls-1 {
        fill: #b9cfdd;
        fill-rule: evenodd;
      }
    </style>
  </defs>
  <path id="_4" data-name="4" class="cls-1" d="M706.652,1578h48.7A10.664,10.664,0,0,1,766,1588.65v33.48a10.664,10.664,0,0,1-10.652,10.65H722.5l-14.77,14.77a1.538,1.538,0,0,1-1.078.45,1.493,1.493,0,0,1-.581-0.12,1.515,1.515,0,0,1-.941-1.4v-13.81a10.662,10.662,0,0,1-9.13-10.54v-33.48A10.665,10.665,0,0,1,706.652,1578Zm-7.608,44.13a7.616,7.616,0,0,0,7.608,7.61,1.521,1.521,0,0,1,1.522,1.52v11.54l12.618-12.62a1.543,1.543,0,0,1,1.078-.44h33.478a7.616,7.616,0,0,0,7.608-7.61v-33.48a7.616,7.616,0,0,0-7.608-7.61h-48.7a7.616,7.616,0,0,0-7.608,7.61v33.48ZM731,1614.52a4.565,4.565,0,1,1-4.565,4.56A4.571,4.571,0,0,1,731,1614.52Zm0,6.09a1.525,1.525,0,1,0-1.522-1.53A1.53,1.53,0,0,0,731,1620.61Zm-4.863-32.03a4.592,4.592,0,0,1,3.341-1.45h3.044a4.565,4.565,0,0,1,4.553,4.91l-1.287,15a4.789,4.789,0,0,1-9.551.02l-1.312-15.04A4.586,4.586,0,0,1,726.137,1588.58Zm1.82,3.2,1.314,15.04a1.747,1.747,0,0,0,3.485-.02l1.285-15a1.484,1.484,0,0,0-.405-1.14,1.525,1.525,0,0,0-1.114-.49h-3.044a1.527,1.527,0,0,0-1.114.49A1.476,1.476,0,0,0,727.957,1591.78Z" transform="translate(-696 -1578)"/>
</svg>
