<svg xmlns="http://www.w3.org/2000/svg" width="18.25" height="23" viewBox="0 0 18.25 23">
  <defs>
    <style>
      .cls-1 {
        fill: #5774b8;
        fill-rule: evenodd;
      }
    </style>
  </defs>
  <path id="form_name" class="cls-1" d="M1650.02,369.387h0.14a4,4,0,0,0,3.13-1.456c1.71-2.069,1.42-5.613,1.39-5.952-0.11-2.537-1.23-3.748-2.15-4.314a4.7,4.7,0,0,0-2.39-.677h-0.07a4.67,4.67,0,0,0-2.39.654c-0.94.568-2.07,1.783-2.18,4.337-0.03.339-.32,3.883,1.39,5.952A3.989,3.989,0,0,0,1650.02,369.387Zm-3.34-7.285a0.385,0.385,0,0,1,.01-0.04c0.14-3.411,2.4-3.781,3.37-3.781h0.05c1.2,0.031,3.24.55,3.38,3.781v0.04c0.01,0.031.32,3.271-1.09,4.974a2.827,2.827,0,0,1-2.29,1.022h-0.04a2.827,2.827,0,0,1-2.29-1.022C1646.38,365.383,1646.68,362.126,1646.68,362.1Zm12.53,13.162v-0.137c-0.03-.944-0.09-3.146-2.01-3.852l-0.05-.015a12.3,12.3,0,0,1-3.68-1.8,0.579,0.579,0,0,0-.84.157,0.668,0.668,0,0,0,.15.891,13.224,13.224,0,0,0,4.05,1.989c1.04,0.4,1.15,1.583,1.18,2.672a0.5,0.5,0,0,0,.01.12,9.969,9.969,0,0,1-.09,1.469,16.678,16.678,0,0,1-15.67-.008,8.746,8.746,0,0,1-.09-1.469v-0.119c0.04-1.087.15-2.272,1.19-2.669a13.534,13.534,0,0,0,4.05-1.988,0.669,0.669,0,0,0,.15-0.891,0.574,0.574,0,0,0-.84-0.157,12.376,12.376,0,0,1-3.68,1.8c-0.02,0-.03.01-0.05,0.014-1.92.712-1.98,2.914-2.01,3.854v0.136a7.745,7.745,0,0,0,.22,2.155,0.675,0.675,0,0,0,.23.3,17.638,17.638,0,0,0,17.34,0,0.611,0.611,0,0,0,.23-0.3A8.013,8.013,0,0,0,1659.21,375.264Z" transform="translate(-1640.97 -357)"/>
</svg>
