<svg xmlns="http://www.w3.org/2000/svg" width="19.97" height="23.812" viewBox="0 0 19.97 23.812">
  <defs>
    <style>
      .cls-1 {
        fill: #5774b8;
        fill-rule: evenodd;
      }
    </style>
  </defs>
  <path id="form_phone" class="cls-1" d="M1657.26,446.065a2.135,2.135,0,0,0-3.27-.419l-1.71,1.376c-0.11-.086-0.23-0.169-0.34-0.245a4.539,4.539,0,0,1-.45-0.332,16.923,16.923,0,0,1-3.51-4.239,10.014,10.014,0,0,1-1.05-2.288c0.44-.321.85-0.662,1.25-1,0.15-.119.3-0.25,0.45-0.373a2.343,2.343,0,0,0,.41-3.443l-1.15-1.533c-0.13-.169-0.26-0.349-0.39-0.526-0.25-.349-0.52-0.707-0.79-1.044a2.286,2.286,0,0,0-1.53-.941,2.339,2.339,0,0,0-1.72.525c-0.01.006-.01,0.006-0.01,0.011l-1.84,1.5a3.723,3.723,0,0,0-1.32,2.184,9.3,9.3,0,0,0,.18,3.779,22.02,22.02,0,0,0,2.93,6.827,23.056,23.056,0,0,0,6.81,7.075,11.562,11.562,0,0,0,4.08,1.834c0.1,0.017.2,0.036,0.3,0.049a3.566,3.566,0,0,0,2.92-.883,0.07,0.07,0,0,1,.02-0.025,12.151,12.151,0,0,1,.95-0.793c0.23-.177.47-0.364,0.7-0.562a2.507,2.507,0,0,0,.93-1.635,2.469,2.469,0,0,0-.54-1.8Zm1.1,5.469c-0.01,0-.01,0,0,0-0.22.183-.43,0.352-0.66,0.534a12.273,12.273,0,0,0-1.05.878,2.269,2.269,0,0,1-1.9.562c-0.07-.01-0.15-0.019-0.22-0.031a10.262,10.262,0,0,1-3.61-1.645,22.025,22.025,0,0,1-6.42-6.664,20.82,20.82,0,0,1-2.75-6.416,7.45,7.45,0,0,1-.17-3.192,2.327,2.327,0,0,1,.84-1.4l1.84-1.489a1.074,1.074,0,0,1,.77-0.264,1.014,1.014,0,0,1,.66.441,0.058,0.058,0,0,1,.02.019c0.26,0.318.5,0.647,0.76,1,0.13,0.179.26,0.358,0.39,0.545l1.16,1.524a0.976,0.976,0,0,1-.19,1.543c-0.15.13-.3,0.259-0.46,0.38-0.46.374-.89,0.727-1.35,1.061a0.238,0.238,0,0,0-.03.018,1.044,1.044,0,0,0-.38,1.1,0.082,0.082,0,0,0,.01.049,11.053,11.053,0,0,0,1.24,2.821v0a18.111,18.111,0,0,0,3.8,4.575c0.18,0.153.37,0.285,0.55,0.41,0.16,0.11.31,0.217,0.44,0.322a0.427,0.427,0,0,0,.06.041,0.968,0.968,0,0,0,.46.187,0.982,0.982,0,0,0,.77-0.252l1.84-1.5a1.121,1.121,0,0,1,.78-0.284,0.987,0.987,0,0,1,.64.455c0.01,0,.01,0,0.01.009l2.33,3.086A1.021,1.021,0,0,1,1658.36,451.534Z" transform="translate(-1640.16 -431.063)"/>
</svg>
